# Blender 4.3.0
# www.blender.org
mtllib r2.mtl
o Cube.002
v 0.800000 -0.100000 1.000000
v 0.800000 0.020000 1.000000
v 0.800000 -0.100000 -1.000000
v 0.800000 0.020000 -1.000000
v 1.000000 -0.100000 1.000000
v 1.000000 0.020000 1.000000
v 1.000000 -0.100000 -1.000000
v 1.000000 0.020000 -1.000000
v -1.000000 -0.100000 1.000000
v -1.000000 0.020000 1.000000
v -1.000000 -0.100000 -1.000000
v -1.000000 0.020000 -1.000000
v -0.800000 -0.100000 1.000000
v -0.800000 0.020000 1.000000
v -0.800000 -0.100000 -1.000000
v -0.800000 0.020000 -1.000000
v 0.800000 -0.100000 1.000000
v 0.800000 0.020000 1.000000
v -0.800000 -0.100000 1.000000
v -0.800000 0.020000 1.000000
v 0.800000 -0.100000 0.800000
v 0.800000 0.020000 0.800000
v -0.800000 -0.100000 0.800000
v -0.800000 0.020000 0.800000
v 0.800000 -0.100000 -0.800000
v 0.800000 0.020000 -0.800000
v -0.800000 -0.100000 -0.800000
v -0.800000 0.020000 -0.800000
v 0.800000 -0.100000 -1.000000
v 0.800000 0.020000 -1.000000
v -0.800000 -0.100000 -1.000000
v -0.800000 0.020000 -1.000000
vn -1.0000 -0.0000 -0.0000
vn -0.0000 -0.0000 -1.0000
vn 1.0000 -0.0000 -0.0000
vn -0.0000 -0.0000 1.0000
vn -0.0000 -1.0000 -0.0000
vn -0.0000 1.0000 -0.0000
vt 0.375000 0.000000
vt 0.625000 0.000000
vt 0.625000 0.250000
vt 0.375000 0.250000
vt 0.625000 0.500000
vt 0.375000 0.500000
vt 0.625000 0.750000
vt 0.375000 0.750000
vt 0.625000 1.000000
vt 0.375000 1.000000
vt 0.125000 0.500000
vt 0.125000 0.750000
vt 0.875000 0.500000
vt 0.875000 0.750000
s 0
usemtl green2
f 1/1/1 2/2/1 4/3/1 3/4/1
f 3/4/2 4/3/2 8/5/2 7/6/2
f 7/6/3 8/5/3 6/7/3 5/8/3
f 5/8/4 6/7/4 2/9/4 1/10/4
f 3/11/5 7/6/5 5/8/5 1/12/5
f 8/5/6 4/13/6 2/14/6 6/7/6
f 9/1/1 10/2/1 12/3/1 11/4/1
f 11/4/2 12/3/2 16/5/2 15/6/2
f 15/6/3 16/5/3 14/7/3 13/8/3
f 13/8/4 14/7/4 10/9/4 9/10/4
f 11/11/5 15/6/5 13/8/5 9/12/5
f 16/5/6 12/13/6 10/14/6 14/7/6
f 17/1/4 18/2/4 20/3/4 19/4/4
f 19/4/1 20/3/1 24/5/1 23/6/1
f 23/6/2 24/5/2 22/7/2 21/8/2
f 21/8/3 22/7/3 18/9/3 17/10/3
f 19/11/5 23/6/5 21/8/5 17/12/5
f 24/5/6 20/13/6 18/14/6 22/7/6
f 25/1/4 26/2/4 28/3/4 27/4/4
f 27/4/1 28/3/1 32/5/1 31/6/1
f 31/6/2 32/5/2 30/7/2 29/8/2
f 29/8/3 30/7/3 26/9/3 25/10/3
f 27/11/5 31/6/5 29/8/5 25/12/5
f 32/5/6 28/13/6 26/14/6 30/7/6
o Cube.001
v -0.800000 -0.100000 0.800000
v -0.800000 -0.060000 0.800000
v -0.800000 -0.100000 -0.800000
v -0.800000 -0.060000 -0.800000
v 0.800000 -0.100000 0.800000
v 0.800000 -0.060000 0.800000
v 0.800000 -0.100000 -0.800000
v 0.800000 -0.060000 -0.800000
vn -1.0000 -0.0000 -0.0000
vn -0.0000 -0.0000 -1.0000
vn 1.0000 -0.0000 -0.0000
vn -0.0000 -0.0000 1.0000
vn -0.0000 -1.0000 -0.0000
vn -0.0000 1.0000 -0.0000
vt 0.375000 0.000000
vt 0.625000 0.000000
vt 0.625000 0.250000
vt 0.375000 0.250000
vt 0.625000 0.500000
vt 0.375000 0.500000
vt 0.625000 0.750000
vt 0.375000 0.750000
vt 0.625000 1.000000
vt 0.375000 1.000000
vt 0.125000 0.500000
vt 0.125000 0.750000
vt 0.875000 0.500000
vt 0.875000 0.750000
s 0
usemtl baseWhite
f 33/15/7 34/16/7 36/17/7 35/18/7
f 35/18/8 36/17/8 40/19/8 39/20/8
f 39/20/9 40/19/9 38/21/9 37/22/9
f 37/22/10 38/21/10 34/23/10 33/24/10
f 35/25/11 39/20/11 37/22/11 33/26/11
f 40/19/12 36/27/12 34/28/12 38/21/12
o Text
v 0.325832 0.042837 0.396324
v -0.065668 0.042837 0.396324
v -0.011515 0.042837 0.331107
v 0.037054 0.042837 0.270838
v 0.080207 0.042837 0.214965
v 0.118110 0.042837 0.162935
v 0.150929 0.042837 0.114197
v 0.178832 0.042837 0.068199
v 0.201985 0.042837 0.024388
v 0.220554 0.042837 -0.017787
v 0.234707 0.042837 -0.058879
v 0.244610 0.042837 -0.099440
v 0.250429 0.042837 -0.140021
v 0.252332 0.042837 -0.181176
v 0.249717 0.042837 -0.227165
v 0.242034 0.042837 -0.270467
v 0.229528 0.042837 -0.310832
v 0.212443 0.042837 -0.348009
v 0.191026 0.042837 -0.381749
v 0.165520 0.042837 -0.411801
v 0.136170 0.042837 -0.437915
v 0.103221 0.042837 -0.459842
v 0.066918 0.042837 -0.477332
v 0.027506 0.042837 -0.490134
v -0.014771 0.042837 -0.497999
v -0.059668 0.042837 -0.500676
v -0.080175 0.042837 -0.500018
v -0.100473 0.042837 -0.498037
v -0.120605 0.042837 -0.494723
v -0.140612 0.042837 -0.490065
v -0.160536 0.042837 -0.484053
v -0.180418 0.042837 -0.476676
v -0.200300 0.042837 -0.467924
v -0.220223 0.042837 -0.457787
v -0.240230 0.042837 -0.446254
v -0.260362 0.042837 -0.433315
v -0.280661 0.042837 -0.418959
v -0.301168 0.042837 -0.403176
v -0.301168 0.042837 -0.218676
v -0.280696 0.042837 -0.243448
v -0.260515 0.042837 -0.265356
v -0.240605 0.042837 -0.284535
v -0.220946 0.042837 -0.301120
v -0.201515 0.042837 -0.315247
v -0.182293 0.042837 -0.327051
v -0.163258 0.042837 -0.336667
v -0.144390 0.042837 -0.344231
v -0.125668 0.042837 -0.349879
v -0.107071 0.042837 -0.353745
v -0.088577 0.042837 -0.355966
v -0.070168 0.042837 -0.356676
v -0.045603 0.042837 -0.355046
v -0.022272 0.042837 -0.350266
v -0.000347 0.042837 -0.342496
v 0.019999 0.042837 -0.331898
v 0.038595 0.042837 -0.318633
v 0.055270 0.042837 -0.302863
v 0.069850 0.042837 -0.284749
v 0.082166 0.042837 -0.264453
v 0.092043 0.042837 -0.242137
v 0.099311 0.042837 -0.217960
v 0.103798 0.042837 -0.192086
v 0.105332 0.042837 -0.164676
v 0.104832 0.042837 -0.143981
v 0.103332 0.042837 -0.124495
v 0.100832 0.042837 -0.105988
v 0.097332 0.042837 -0.088231
v 0.092832 0.042837 -0.070995
v 0.087332 0.042837 -0.054051
v 0.080832 0.042837 -0.037169
v 0.073332 0.042837 -0.020120
v 0.064832 0.042837 -0.002676
v 0.055332 0.042837 0.015394
v 0.044832 0.042837 0.034317
v 0.033332 0.042837 0.054324
v 0.010210 0.042837 0.092180
v -0.015397 0.042837 0.131296
v -0.043097 0.042837 0.171371
v -0.072501 0.042837 0.212102
v -0.103217 0.042837 0.253187
v -0.134855 0.042837 0.294324
v -0.167025 0.042837 0.335211
v -0.199334 0.042837 0.375547
v -0.231394 0.042837 0.415027
v -0.262814 0.042837 0.453352
v -0.293202 0.042837 0.490218
v -0.322168 0.042837 0.525324
v -0.322168 0.042837 0.535824
v 0.325832 0.042837 0.535824
v 0.325832 -0.047163 0.396324
v -0.065668 -0.047163 0.396324
v -0.011515 -0.047163 0.331107
v 0.037054 -0.047163 0.270838
v 0.080207 -0.047163 0.214965
v 0.118110 -0.047163 0.162935
v 0.150929 -0.047163 0.114197
v 0.178832 -0.047163 0.068199
v 0.201985 -0.047163 0.024388
v 0.220554 -0.047163 -0.017787
v 0.234707 -0.047163 -0.058879
v 0.244610 -0.047163 -0.099440
v 0.250429 -0.047163 -0.140021
v 0.252332 -0.047163 -0.181176
v 0.249717 -0.047163 -0.227165
v 0.242034 -0.047163 -0.270467
v 0.229528 -0.047163 -0.310832
v 0.212443 -0.047163 -0.348009
v 0.191026 -0.047163 -0.381749
v 0.165520 -0.047163 -0.411801
v 0.136170 -0.047163 -0.437915
v 0.103221 -0.047163 -0.459842
v 0.066918 -0.047163 -0.477332
v 0.027506 -0.047163 -0.490134
v -0.014771 -0.047163 -0.497999
v -0.059668 -0.047163 -0.500676
v -0.080175 -0.047163 -0.500018
v -0.100473 -0.047163 -0.498037
v -0.120605 -0.047163 -0.494723
v -0.140612 -0.047163 -0.490065
v -0.160536 -0.047163 -0.484053
v -0.180418 -0.047163 -0.476676
v -0.200300 -0.047163 -0.467924
v -0.220223 -0.047163 -0.457787
v -0.240230 -0.047163 -0.446254
v -0.260362 -0.047163 -0.433315
v -0.280661 -0.047163 -0.418959
v -0.301168 -0.047163 -0.403176
v -0.301168 -0.047163 -0.218676
v -0.280696 -0.047163 -0.243448
v -0.260515 -0.047163 -0.265356
v -0.240605 -0.047163 -0.284535
v -0.220946 -0.047163 -0.301120
v -0.201515 -0.047163 -0.315247
v -0.182293 -0.047163 -0.327051
v -0.163258 -0.047163 -0.336667
v -0.144390 -0.047163 -0.344231
v -0.125668 -0.047163 -0.349879
v -0.107071 -0.047163 -0.353745
v -0.088577 -0.047163 -0.355966
v -0.070168 -0.047163 -0.356676
v -0.045603 -0.047163 -0.355046
v -0.022272 -0.047163 -0.350266
v -0.000347 -0.047163 -0.342496
v 0.019999 -0.047163 -0.331898
v 0.038595 -0.047163 -0.318633
v 0.055270 -0.047163 -0.302863
v 0.069850 -0.047163 -0.284749
v 0.082166 -0.047163 -0.264453
v 0.092043 -0.047163 -0.242137
v 0.099311 -0.047163 -0.217960
v 0.103798 -0.047163 -0.192086
v 0.105332 -0.047163 -0.164676
v 0.104832 -0.047163 -0.143981
v 0.103332 -0.047163 -0.124495
v 0.100832 -0.047163 -0.105988
v 0.097332 -0.047163 -0.088231
v 0.092832 -0.047163 -0.070995
v 0.087332 -0.047163 -0.054051
v 0.080832 -0.047163 -0.037169
v 0.073332 -0.047163 -0.020120
v 0.064832 -0.047163 -0.002676
v 0.055332 -0.047163 0.015394
v 0.044832 -0.047163 0.034317
v 0.033332 -0.047163 0.054324
v 0.010210 -0.047163 0.092180
v -0.015397 -0.047163 0.131296
v -0.043097 -0.047163 0.171371
v -0.072501 -0.047163 0.212102
v -0.103217 -0.047163 0.253187
v -0.134855 -0.047163 0.294324
v -0.167025 -0.047163 0.335211
v -0.199334 -0.047163 0.375547
v -0.231394 -0.047163 0.415027
v -0.262814 -0.047163 0.453352
v -0.293202 -0.047163 0.490218
v -0.322168 -0.047163 0.525324
v -0.322168 -0.047163 0.535824
v 0.325832 -0.047163 0.535824
vn -0.0000 1.0000 -0.0000
vn -0.0000 -1.0000 -0.0000
vn -0.0321 -0.0000 -0.9995
vn 0.0595 -0.0000 -0.9982
vn -0.0971 -0.0000 -0.9953
vn -0.1624 -0.0000 -0.9867
vn 0.1829 -0.0000 -0.9831
vn -0.2268 -0.0000 -0.9740
vn 0.3089 -0.0000 -0.9511
vn -0.2889 -0.0000 -0.9574
vn -0.3479 -0.0000 -0.9375
vn 0.4340 -0.0000 -0.9009
vn -0.4029 -0.0000 -0.9153
vn -0.4535 -0.0000 -0.8913
vn 0.5540 -0.0000 -0.8325
vn -0.4994 -0.0000 -0.8664
vn -0.5407 -0.0000 -0.8412
vn 0.6647 -0.0000 -0.7471
vn -0.5774 -0.0000 -0.8164
vn -0.6099 -0.0000 -0.7925
vn 0.7624 -0.0000 -0.6471
vn -1.0000 -0.0000 -0.0000
vn 0.7708 -0.0000 0.6370
vn 0.7355 -0.0000 0.6775
vn 0.6938 -0.0000 0.7202
vn 0.6448 -0.0000 0.7643
vn 0.5880 -0.0000 0.8088
vn 0.5233 -0.0000 0.8522
vn 0.4509 -0.0000 0.8926
vn 0.3721 -0.0000 0.9282
vn 0.2888 -0.0000 0.9574
vn 0.2035 -0.0000 0.9791
vn 0.1192 -0.0000 0.9929
vn 0.0385 -0.0000 0.9993
vn 0.8443 -0.0000 -0.5359
vn -0.0662 -0.0000 0.9978
vn -0.2007 -0.0000 0.9796
vn -0.3340 -0.0000 0.9426
vn 0.9087 -0.0000 -0.4176
vn -0.4620 -0.0000 0.8869
vn -0.5807 -0.0000 0.8141
vn -0.6871 -0.0000 0.7265
vn 0.9552 -0.0000 -0.2959
vn -0.7790 -0.0000 0.6270
vn -0.8549 -0.0000 0.5187
vn 0.9846 -0.0000 -0.1747
vn -0.9144 -0.0000 0.4047
vn -0.9577 -0.0000 0.2879
vn 0.9984 -0.0000 -0.0568
vn -0.9853 -0.0000 0.1709
vn -0.9984 -0.0000 0.0559
vn 0.9989 -0.0000 0.0462
vn -0.9997 -0.0000 -0.0242
vn -0.9971 -0.0000 -0.0768
vn 0.9899 -0.0000 0.1419
vn -0.9910 -0.0000 -0.1339
vn -0.9811 -0.0000 -0.1934
vn 0.9715 -0.0000 0.2372
vn -0.9676 -0.0000 -0.2526
vn -0.9511 -0.0000 -0.3087
vn 0.9455 -0.0000 0.3256
vn -0.9332 -0.0000 -0.3593
vn -0.9153 -0.0000 -0.4027
vn -0.8990 -0.0000 -0.4380
vn 0.9152 -0.0000 0.4030
vn -0.8851 -0.0000 -0.4654
vn -0.8744 -0.0000 -0.4852
vn 0.8841 -0.0000 0.4672
vn -0.8670 -0.0000 -0.4983
vn -0.8534 -0.0000 -0.5213
vn 0.8550 -0.0000 0.5186
vn -0.8367 -0.0000 -0.5477
vn 0.8295 -0.0000 0.5586
vn -0.8226 -0.0000 -0.5686
vn 0.8083 -0.0000 0.5888
vn -0.8108 -0.0000 -0.5853
vn -0.8009 -0.0000 -0.5988
vn 0.7914 -0.0000 0.6113
vn -0.7927 -0.0000 -0.6096
vn 0.7786 -0.0000 0.6275
vn -0.7859 -0.0000 -0.6183
vn 0.7693 -0.0000 0.6388
vn -0.7805 -0.0000 -0.6252
vn -0.7763 -0.0000 -0.6304
vn -0.0000 -0.0000 -1.0000
vn 1.0000 -0.0000 -0.0000
vn -0.7733 -0.0000 -0.6340
vn -0.7716 -0.0000 -0.6361
vn -0.7713 -0.0000 -0.6364
vn -0.0000 -0.0000 1.0000
vt 0.295455 0.000000
vt 0.272727 0.000000
vt 0.284091 0.000000
vt 0.306818 0.000000
vt 0.318182 0.000000
vt 0.261364 0.000000
vt 0.329545 0.000000
vt 0.250000 0.000000
vt 0.340909 0.000000
vt 0.352273 0.000000
vt 0.238636 0.000000
vt 0.363636 0.000000
vt 0.375000 0.000000
vt 0.227273 0.000000
vt 0.386364 0.000000
vt 0.397727 0.000000
vt 0.215909 0.000000
vt 0.409091 0.000000
vt 0.420455 0.000000
vt 0.204545 0.000000
vt 0.431818 0.000000
vt 0.443182 0.000000
vt 0.454545 0.000000
vt 0.465909 0.000000
vt 0.477273 0.000000
vt 0.488636 0.000000
vt 0.500000 0.000000
vt 0.511364 0.000000
vt 0.522727 0.000000
vt 0.534091 0.000000
vt 0.545455 0.000000
vt 0.556818 0.000000
vt 0.568182 0.000000
vt 0.193182 0.000000
vt 0.579545 0.000000
vt 0.590909 0.000000
vt 0.602273 0.000000
vt 0.181818 0.000000
vt 0.613636 0.000000
vt 0.625000 0.000000
vt 0.636364 0.000000
vt 0.170455 0.000000
vt 0.647727 0.000000
vt 0.659091 0.000000
vt 0.159091 0.000000
vt 0.670455 0.000000
vt 0.681818 0.000000
vt 0.147727 0.000000
vt 0.693182 0.000000
vt 0.704545 0.000000
vt 0.136364 0.000000
vt 0.715909 0.000000
vt 0.727273 0.000000
vt 0.125000 0.000000
vt 0.738636 0.000000
vt 0.750000 0.000000
vt 0.113636 0.000000
vt 0.761364 0.000000
vt 0.772727 0.000000
vt 0.102273 0.000000
vt 0.784091 0.000000
vt 0.795455 0.000000
vt 0.806818 0.000000
vt 0.090909 0.000000
vt 0.818182 0.000000
vt 0.829545 0.000000
vt 0.079545 0.000000
vt 0.840909 0.000000
vt 0.852273 0.000000
vt 0.068182 0.000000
vt 0.863636 0.000000
vt 0.056818 0.000000
vt 0.875000 0.000000
vt 0.045455 0.000000
vt 0.886364 0.000000
vt 0.897727 0.000000
vt 0.034091 0.000000
vt 0.909091 0.000000
vt 0.022727 0.000000
vt 0.920455 0.000000
vt 0.011364 0.000000
vt 0.931818 0.000000
vt 0.943182 0.000000
vt 0.000000 0.000000
vt 1.000000 0.000000
vt 0.954545 0.000000
vt 0.965909 0.000000
vt 0.977273 0.000000
vt 0.988636 0.000000
s 0
usemtl green2
f 67/29/13 65/30/13 66/31/13
f 68/32/13 65/30/13 67/29/13
f 69/33/13 65/30/13 68/32/13
f 69/33/13 64/34/13 65/30/13
f 70/35/13 64/34/13 69/33/13
f 70/35/13 63/36/13 64/34/13
f 71/37/13 63/36/13 70/35/13
f 72/38/13 63/36/13 71/37/13
f 72/38/13 62/39/13 63/36/13
f 73/40/13 62/39/13 72/38/13
f 74/41/13 62/39/13 73/40/13
f 74/41/13 61/42/13 62/39/13
f 75/43/13 61/42/13 74/41/13
f 76/44/13 61/42/13 75/43/13
f 76/44/13 60/45/13 61/42/13
f 77/46/13 60/45/13 76/44/13
f 78/47/13 60/45/13 77/46/13
f 78/47/13 59/48/13 60/45/13
f 79/49/13 80/50/13 78/47/13
f 80/50/13 81/51/13 78/47/13
f 81/51/13 82/52/13 78/47/13
f 82/52/13 83/53/13 78/47/13
f 83/53/13 84/54/13 78/47/13
f 84/54/13 85/55/13 78/47/13
f 85/55/13 86/56/13 78/47/13
f 86/56/13 87/57/13 78/47/13
f 87/57/13 88/58/13 78/47/13
f 88/58/13 89/59/13 78/47/13
f 89/59/13 90/60/13 78/47/13
f 90/60/13 59/48/13 78/47/13
f 90/60/13 91/61/13 59/48/13
f 91/61/13 58/62/13 59/48/13
f 92/63/13 58/62/13 91/61/13
f 93/64/13 58/62/13 92/63/13
f 94/65/13 58/62/13 93/64/13
f 94/65/13 57/66/13 58/62/13
f 95/67/13 57/66/13 94/65/13
f 96/68/13 57/66/13 95/67/13
f 97/69/13 57/66/13 96/68/13
f 97/69/13 56/70/13 57/66/13
f 98/71/13 56/70/13 97/69/13
f 99/72/13 56/70/13 98/71/13
f 99/72/13 55/73/13 56/70/13
f 100/74/13 55/73/13 99/72/13
f 101/75/13 55/73/13 100/74/13
f 101/75/13 54/76/13 55/73/13
f 102/77/13 54/76/13 101/75/13
f 103/78/13 54/76/13 102/77/13
f 103/78/13 53/79/13 54/76/13
f 104/80/13 53/79/13 103/78/13
f 105/81/13 53/79/13 104/80/13
f 105/81/13 52/82/13 53/79/13
f 106/83/13 52/82/13 105/81/13
f 107/84/13 52/82/13 106/83/13
f 107/84/13 51/85/13 52/82/13
f 108/86/13 51/85/13 107/84/13
f 109/87/13 51/85/13 108/86/13
f 109/87/13 50/88/13 51/85/13
f 110/89/13 50/88/13 109/87/13
f 111/90/13 50/88/13 110/89/13
f 112/91/13 50/88/13 111/90/13
f 112/91/13 49/92/13 50/88/13
f 113/93/13 49/92/13 112/91/13
f 114/94/13 49/92/13 113/93/13
f 114/94/13 48/95/13 49/92/13
f 115/96/13 48/95/13 114/94/13
f 116/97/13 48/95/13 115/96/13
f 116/97/13 47/98/13 48/95/13
f 117/99/13 47/98/13 116/97/13
f 117/99/13 46/100/13 47/98/13
f 118/101/13 46/100/13 117/99/13
f 118/101/13 45/102/13 46/100/13
f 119/103/13 45/102/13 118/101/13
f 120/104/13 45/102/13 119/103/13
f 120/104/13 44/105/13 45/102/13
f 121/106/13 44/105/13 120/104/13
f 121/106/13 43/107/13 44/105/13
f 122/108/13 43/107/13 121/106/13
f 122/108/13 42/109/13 43/107/13
f 123/110/13 42/109/13 122/108/13
f 124/111/13 42/109/13 123/110/13
f 124/111/13 41/112/13 42/109/13
f 124/111/13 129/113/13 41/112/13
f 125/114/13 129/113/13 124/111/13
f 126/115/13 129/113/13 125/114/13
f 127/116/13 129/113/13 126/115/13
f 128/117/13 129/113/13 127/116/13
f 156/29/14 155/31/14 154/30/14
f 157/32/14 156/29/14 154/30/14
f 158/33/14 157/32/14 154/30/14
f 158/33/14 154/30/14 153/34/14
f 159/35/14 158/33/14 153/34/14
f 159/35/14 153/34/14 152/36/14
f 160/37/14 159/35/14 152/36/14
f 161/38/14 160/37/14 152/36/14
f 161/38/14 152/36/14 151/39/14
f 162/40/14 161/38/14 151/39/14
f 163/41/14 162/40/14 151/39/14
f 163/41/14 151/39/14 150/42/14
f 164/43/14 163/41/14 150/42/14
f 165/44/14 164/43/14 150/42/14
f 165/44/14 150/42/14 149/45/14
f 166/46/14 165/44/14 149/45/14
f 167/47/14 166/46/14 149/45/14
f 167/47/14 149/45/14 148/48/14
f 168/49/14 167/47/14 169/50/14
f 169/50/14 167/47/14 170/51/14
f 170/51/14 167/47/14 171/52/14
f 171/52/14 167/47/14 172/53/14
f 172/53/14 167/47/14 173/54/14
f 173/54/14 167/47/14 174/55/14
f 174/55/14 167/47/14 175/56/14
f 175/56/14 167/47/14 176/57/14
f 176/57/14 167/47/14 177/58/14
f 177/58/14 167/47/14 178/59/14
f 178/59/14 167/47/14 179/60/14
f 179/60/14 167/47/14 148/48/14
f 179/60/14 148/48/14 180/61/14
f 180/61/14 148/48/14 147/62/14
f 181/63/14 180/61/14 147/62/14
f 182/64/14 181/63/14 147/62/14
f 183/65/14 182/64/14 147/62/14
f 183/65/14 147/62/14 146/66/14
f 184/67/14 183/65/14 146/66/14
f 185/68/14 184/67/14 146/66/14
f 186/69/14 185/68/14 146/66/14
f 186/69/14 146/66/14 145/70/14
f 187/71/14 186/69/14 145/70/14
f 188/72/14 187/71/14 145/70/14
f 188/72/14 145/70/14 144/73/14
f 189/74/14 188/72/14 144/73/14
f 190/75/14 189/74/14 144/73/14
f 190/75/14 144/73/14 143/76/14
f 191/77/14 190/75/14 143/76/14
f 192/78/14 191/77/14 143/76/14
f 192/78/14 143/76/14 142/79/14
f 193/80/14 192/78/14 142/79/14
f 194/81/14 193/80/14 142/79/14
f 194/81/14 142/79/14 141/82/14
f 195/83/14 194/81/14 141/82/14
f 196/84/14 195/83/14 141/82/14
f 196/84/14 141/82/14 140/85/14
f 197/86/14 196/84/14 140/85/14
f 198/87/14 197/86/14 140/85/14
f 198/87/14 140/85/14 139/88/14
f 199/89/14 198/87/14 139/88/14
f 200/90/14 199/89/14 139/88/14
f 201/91/14 200/90/14 139/88/14
f 201/91/14 139/88/14 138/92/14
f 202/93/14 201/91/14 138/92/14
f 203/94/14 202/93/14 138/92/14
f 203/94/14 138/92/14 137/95/14
f 204/96/14 203/94/14 137/95/14
f 205/97/14 204/96/14 137/95/14
f 205/97/14 137/95/14 136/98/14
f 206/99/14 205/97/14 136/98/14
f 206/99/14 136/98/14 135/100/14
f 207/101/14 206/99/14 135/100/14
f 207/101/14 135/100/14 134/102/14
f 208/103/14 207/101/14 134/102/14
f 209/104/14 208/103/14 134/102/14
f 209/104/14 134/102/14 133/105/14
f 210/106/14 209/104/14 133/105/14
f 210/106/14 133/105/14 132/107/14
f 211/108/14 210/106/14 132/107/14
f 211/108/14 132/107/14 131/109/14
f 212/110/14 211/108/14 131/109/14
f 213/111/14 212/110/14 131/109/14
f 213/111/14 131/109/14 130/112/14
f 213/111/14 130/112/14 218/113/14
f 214/114/14 213/111/14 218/113/14
f 215/115/14 214/114/14 218/113/14
f 216/116/14 215/115/14 218/113/14
f 217/117/14 216/116/14 218/113/14
f 67/29/15 66/31/15 155/31/15 156/29/15
f 66/31/16 65/30/16 154/30/16 155/31/16
f 68/32/17 67/29/17 156/29/17 157/32/17
f 69/33/18 68/32/18 157/32/18 158/33/18
f 65/30/19 64/34/19 153/34/19 154/30/19
f 70/35/20 69/33/20 158/33/20 159/35/20
f 64/34/21 63/36/21 152/36/21 153/34/21
f 71/37/22 70/35/22 159/35/22 160/37/22
f 72/38/23 71/37/23 160/37/23 161/38/23
f 63/36/24 62/39/24 151/39/24 152/36/24
f 73/40/25 72/38/25 161/38/25 162/40/25
f 74/41/26 73/40/26 162/40/26 163/41/26
f 62/39/27 61/42/27 150/42/27 151/39/27
f 75/43/28 74/41/28 163/41/28 164/43/28
f 76/44/29 75/43/29 164/43/29 165/44/29
f 61/42/30 60/45/30 149/45/30 150/42/30
f 77/46/31 76/44/31 165/44/31 166/46/31
f 78/47/32 77/46/32 166/46/32 167/47/32
f 60/45/33 59/48/33 148/48/33 149/45/33
f 79/49/34 78/47/34 167/47/34 168/49/34
f 80/50/35 79/49/35 168/49/35 169/50/35
f 81/51/36 80/50/36 169/50/36 170/51/36
f 82/52/37 81/51/37 170/51/37 171/52/37
f 83/53/38 82/52/38 171/52/38 172/53/38
f 84/54/39 83/53/39 172/53/39 173/54/39
f 85/55/40 84/54/40 173/54/40 174/55/40
f 86/56/41 85/55/41 174/55/41 175/56/41
f 87/57/42 86/56/42 175/56/42 176/57/42
f 88/58/43 87/57/43 176/57/43 177/58/43
f 89/59/44 88/58/44 177/58/44 178/59/44
f 90/60/45 89/59/45 178/59/45 179/60/45
f 91/61/46 90/60/46 179/60/46 180/61/46
f 59/48/47 58/62/47 147/62/47 148/48/47
f 92/63/48 91/61/48 180/61/48 181/63/48
f 93/64/49 92/63/49 181/63/49 182/64/49
f 94/65/50 93/64/50 182/64/50 183/65/50
f 58/62/51 57/66/51 146/66/51 147/62/51
f 95/67/52 94/65/52 183/65/52 184/67/52
f 96/68/53 95/67/53 184/67/53 185/68/53
f 97/69/54 96/68/54 185/68/54 186/69/54
f 57/66/55 56/70/55 145/70/55 146/66/55
f 98/71/56 97/69/56 186/69/56 187/71/56
f 99/72/57 98/71/57 187/71/57 188/72/57
f 56/70/58 55/73/58 144/73/58 145/70/58
f 100/74/59 99/72/59 188/72/59 189/74/59
f 101/75/60 100/74/60 189/74/60 190/75/60
f 55/73/61 54/76/61 143/76/61 144/73/61
f 102/77/62 101/75/62 190/75/62 191/77/62
f 103/78/63 102/77/63 191/77/63 192/78/63
f 54/76/64 53/79/64 142/79/64 143/76/64
f 104/80/65 103/78/65 192/78/65 193/80/65
f 105/81/66 104/80/66 193/80/66 194/81/66
f 53/79/67 52/82/67 141/82/67 142/79/67
f 106/83/68 105/81/68 194/81/68 195/83/68
f 107/84/69 106/83/69 195/83/69 196/84/69
f 52/82/70 51/85/70 140/85/70 141/82/70
f 108/86/71 107/84/71 196/84/71 197/86/71
f 109/87/72 108/86/72 197/86/72 198/87/72
f 51/85/73 50/88/73 139/88/73 140/85/73
f 110/89/74 109/87/74 198/87/74 199/89/74
f 111/90/75 110/89/75 199/89/75 200/90/75
f 112/91/76 111/90/76 200/90/76 201/91/76
f 50/88/77 49/92/77 138/92/77 139/88/77
f 113/93/78 112/91/78 201/91/78 202/93/78
f 114/94/79 113/93/79 202/93/79 203/94/79
f 49/92/80 48/95/80 137/95/80 138/92/80
f 115/96/81 114/94/81 203/94/81 204/96/81
f 116/97/82 115/96/82 204/96/82 205/97/82
f 48/95/83 47/98/83 136/98/83 137/95/83
f 117/99/84 116/97/84 205/97/84 206/99/84
f 47/98/85 46/100/85 135/100/85 136/98/85
f 118/101/86 117/99/86 206/99/86 207/101/86
f 46/100/87 45/102/87 134/102/87 135/100/87
f 119/103/88 118/101/88 207/101/88 208/103/88
f 120/104/89 119/103/89 208/103/89 209/104/89
f 45/102/90 44/105/90 133/105/90 134/102/90
f 121/106/91 120/104/91 209/104/91 210/106/91
f 44/105/92 43/107/92 132/107/92 133/105/92
f 122/108/93 121/106/93 210/106/93 211/108/93
f 43/107/94 42/109/94 131/109/94 132/107/94
f 123/110/95 122/108/95 211/108/95 212/110/95
f 124/111/96 123/110/96 212/110/96 213/111/96
f 42/109/97 41/112/97 130/112/97 131/109/97
f 41/112/98 129/113/98 218/113/98 130/112/98
f 125/114/99 124/111/99 213/111/99 214/114/99
f 126/115/100 125/114/100 214/114/100 215/115/100
f 127/116/101 126/115/101 215/115/101 216/116/101
f 128/117/34 127/116/34 216/116/34 217/117/34
f 129/113/102 128/117/102 217/117/102 218/113/102
