# Blender 4.3.0
# www.blender.org
mtllib r4.mtl
o Cube.002
v 0.800000 -0.100000 1.000000
v 0.800000 0.020000 1.000000
v 0.800000 -0.100000 -1.000000
v 0.800000 0.020000 -1.000000
v 1.000000 -0.100000 1.000000
v 1.000000 0.020000 1.000000
v 1.000000 -0.100000 -1.000000
v 1.000000 0.020000 -1.000000
v -1.000000 -0.100000 1.000000
v -1.000000 0.020000 1.000000
v -1.000000 -0.100000 -1.000000
v -1.000000 0.020000 -1.000000
v -0.800000 -0.100000 1.000000
v -0.800000 0.020000 1.000000
v -0.800000 -0.100000 -1.000000
v -0.800000 0.020000 -1.000000
v 0.800000 -0.100000 1.000000
v 0.800000 0.020000 1.000000
v -0.800000 -0.100000 1.000000
v -0.800000 0.020000 1.000000
v 0.800000 -0.100000 0.800000
v 0.800000 0.020000 0.800000
v -0.800000 -0.100000 0.800000
v -0.800000 0.020000 0.800000
v 0.800000 -0.100000 -0.800000
v 0.800000 0.020000 -0.800000
v -0.800000 -0.100000 -0.800000
v -0.800000 0.020000 -0.800000
v 0.800000 -0.100000 -1.000000
v 0.800000 0.020000 -1.000000
v -0.800000 -0.100000 -1.000000
v -0.800000 0.020000 -1.000000
vn -1.0000 -0.0000 -0.0000
vn -0.0000 -0.0000 -1.0000
vn 1.0000 -0.0000 -0.0000
vn -0.0000 -0.0000 1.0000
vn -0.0000 -1.0000 -0.0000
vn -0.0000 1.0000 -0.0000
vt 0.375000 0.000000
vt 0.625000 0.000000
vt 0.625000 0.250000
vt 0.375000 0.250000
vt 0.625000 0.500000
vt 0.375000 0.500000
vt 0.625000 0.750000
vt 0.375000 0.750000
vt 0.625000 1.000000
vt 0.375000 1.000000
vt 0.125000 0.500000
vt 0.125000 0.750000
vt 0.875000 0.500000
vt 0.875000 0.750000
s 0
usemtl purple4
f 1/1/1 2/2/1 4/3/1 3/4/1
f 3/4/2 4/3/2 8/5/2 7/6/2
f 7/6/3 8/5/3 6/7/3 5/8/3
f 5/8/4 6/7/4 2/9/4 1/10/4
f 3/11/5 7/6/5 5/8/5 1/12/5
f 8/5/6 4/13/6 2/14/6 6/7/6
f 9/1/1 10/2/1 12/3/1 11/4/1
f 11/4/2 12/3/2 16/5/2 15/6/2
f 15/6/3 16/5/3 14/7/3 13/8/3
f 13/8/4 14/7/4 10/9/4 9/10/4
f 11/11/5 15/6/5 13/8/5 9/12/5
f 16/5/6 12/13/6 10/14/6 14/7/6
f 17/1/4 18/2/4 20/3/4 19/4/4
f 19/4/1 20/3/1 24/5/1 23/6/1
f 23/6/2 24/5/2 22/7/2 21/8/2
f 21/8/3 22/7/3 18/9/3 17/10/3
f 19/11/5 23/6/5 21/8/5 17/12/5
f 24/5/6 20/13/6 18/14/6 22/7/6
f 25/1/4 26/2/4 28/3/4 27/4/4
f 27/4/1 28/3/1 32/5/1 31/6/1
f 31/6/2 32/5/2 30/7/2 29/8/2
f 29/8/3 30/7/3 26/9/3 25/10/3
f 27/11/5 31/6/5 29/8/5 25/12/5
f 32/5/6 28/13/6 26/14/6 30/7/6
o Cube.001
v -0.800000 -0.100000 0.800000
v -0.800000 -0.060000 0.800000
v -0.800000 -0.100000 -0.800000
v -0.800000 -0.060000 -0.800000
v 0.800000 -0.100000 0.800000
v 0.800000 -0.060000 0.800000
v 0.800000 -0.100000 -0.800000
v 0.800000 -0.060000 -0.800000
vn -1.0000 -0.0000 -0.0000
vn -0.0000 -0.0000 -1.0000
vn 1.0000 -0.0000 -0.0000
vn -0.0000 -0.0000 1.0000
vn -0.0000 -1.0000 -0.0000
vn -0.0000 1.0000 -0.0000
vt 0.375000 0.000000
vt 0.625000 0.000000
vt 0.625000 0.250000
vt 0.375000 0.250000
vt 0.625000 0.500000
vt 0.375000 0.500000
vt 0.625000 0.750000
vt 0.375000 0.750000
vt 0.625000 1.000000
vt 0.375000 1.000000
vt 0.125000 0.500000
vt 0.125000 0.750000
vt 0.875000 0.500000
vt 0.875000 0.750000
s 0
usemtl baseWhite
f 33/15/7 34/16/7 36/17/7 35/18/7
f 35/18/8 36/17/8 40/19/8 39/20/8
f 39/20/9 40/19/9 38/21/9 37/22/9
f 37/22/10 38/21/10 34/23/10 33/24/10
f 35/25/11 39/20/11 37/22/11 33/26/11
f 40/19/12 36/27/12 34/28/12 38/21/12
o Text
v 0.223832 0.042837 -0.500676
v 0.160832 0.042837 -0.500676
v -0.356668 0.042837 0.132324
v -0.356668 0.042837 0.199824
v 0.076832 0.042837 0.199824
v 0.076832 0.042837 0.535824
v 0.223832 0.042837 0.535824
v 0.223832 0.042837 0.199824
v 0.333332 0.042837 0.199824
v 0.333332 0.042837 0.067824
v 0.223832 0.042837 0.067824
v 0.073832 0.042837 -0.223176
v 0.076832 0.042837 -0.223176
v 0.076832 0.042837 0.067824
v -0.160168 0.042837 0.067824
v 0.223832 -0.047163 -0.500676
v 0.160832 -0.047163 -0.500676
v -0.356668 -0.047163 0.132324
v -0.356668 -0.047163 0.199824
v 0.076832 -0.047163 0.199824
v 0.076832 -0.047163 0.535824
v 0.223832 -0.047163 0.535824
v 0.223832 -0.047163 0.199824
v 0.333332 -0.047163 0.199824
v 0.333332 -0.047163 0.067824
v 0.223832 -0.047163 0.067824
v 0.073832 -0.047163 -0.223176
v 0.076832 -0.047163 -0.223176
v 0.076832 -0.047163 0.067824
v -0.160168 -0.047163 0.067824
vn -0.0000 1.0000 -0.0000
vn -0.0000 -1.0000 -0.0000
vn -0.7742 -0.0000 -0.6329
vn -0.0000 -0.0000 -1.0000
vn -0.0000 -0.0000 1.0000
vn 1.0000 -0.0000 -0.0000
vn 0.7793 -0.0000 0.6267
vn -1.0000 -0.0000 -0.0000
vt 0.142857 0.000000
vt 0.000000 0.000000
vt 0.071429 0.000000
vt 0.785714 0.000000
vt 0.857143 0.000000
vt 0.714286 0.000000
vt 1.000000 0.000000
vt 0.928571 0.000000
vt 0.642857 0.000000
vt 0.571429 0.000000
vt 0.214286 0.000000
vt 0.285714 0.000000
vt 0.357143 0.000000
vt 0.500000 0.000000
vt 0.428571 0.000000
s 0
usemtl purple4
f 43/29/13 41/30/13 42/31/13
f 43/29/13 52/32/13 41/30/13
f 52/32/13 53/33/13 41/30/13
f 53/33/13 51/34/13 41/30/13
f 43/29/13 55/35/13 52/32/13
f 54/36/13 51/34/13 53/33/13
f 43/29/13 54/36/13 55/35/13
f 43/29/13 51/34/13 54/36/13
f 43/29/13 50/37/13 51/34/13
f 43/29/13 49/38/13 50/37/13
f 44/39/13 49/38/13 43/29/13
f 45/40/13 49/38/13 44/39/13
f 46/41/13 48/42/13 45/40/13
f 48/42/13 49/38/13 45/40/13
f 46/41/13 47/43/13 48/42/13
f 58/29/14 57/31/14 56/30/14
f 58/29/14 56/30/14 67/32/14
f 67/32/14 56/30/14 68/33/14
f 68/33/14 56/30/14 66/34/14
f 58/29/14 67/32/14 70/35/14
f 69/36/14 68/33/14 66/34/14
f 58/29/14 70/35/14 69/36/14
f 58/29/14 69/36/14 66/34/14
f 58/29/14 66/34/14 65/37/14
f 58/29/14 65/37/14 64/38/14
f 59/39/14 58/29/14 64/38/14
f 60/40/13 59/39/13 64/38/13
f 61/41/14 60/40/14 63/42/14
f 63/42/13 60/40/13 64/38/13
f 61/41/14 63/42/14 62/43/14
f 43/29/15 42/31/15 57/31/15 58/29/15
f 42/31/16 41/30/16 56/30/16 57/31/16
f 53/33/17 52/32/17 67/32/17 68/33/17
f 41/30/18 51/34/18 66/34/18 56/30/18
f 52/32/19 55/35/19 70/35/19 67/32/19
f 54/36/20 53/33/20 68/33/20 69/36/20
f 55/35/16 54/36/16 69/36/16 70/35/16
f 51/34/16 50/37/16 65/37/16 66/34/16
f 50/37/18 49/38/18 64/38/18 65/37/18
f 44/39/20 43/29/20 58/29/20 59/39/20
f 45/40/17 44/39/17 59/39/17 60/40/17
f 46/41/20 45/40/20 60/40/20 61/41/20
f 49/38/17 48/42/17 63/42/17 64/38/17
f 47/43/17 46/41/17 61/41/17 62/43/17
f 48/42/18 47/43/18 62/43/18 63/42/18
