# Blender 4.3.0
# www.blender.org
mtllib r5.mtl
o Cube.002
v 0.800000 -0.100000 1.000000
v 0.800000 0.020000 1.000000
v 0.800000 -0.100000 -1.000000
v 0.800000 0.020000 -1.000000
v 1.000000 -0.100000 1.000000
v 1.000000 0.020000 1.000000
v 1.000000 -0.100000 -1.000000
v 1.000000 0.020000 -1.000000
v -1.000000 -0.100000 1.000000
v -1.000000 0.020000 1.000000
v -1.000000 -0.100000 -1.000000
v -1.000000 0.020000 -1.000000
v -0.800000 -0.100000 1.000000
v -0.800000 0.020000 1.000000
v -0.800000 -0.100000 -1.000000
v -0.800000 0.020000 -1.000000
v 0.800000 -0.100000 1.000000
v 0.800000 0.020000 1.000000
v -0.800000 -0.100000 1.000000
v -0.800000 0.020000 1.000000
v 0.800000 -0.100000 0.800000
v 0.800000 0.020000 0.800000
v -0.800000 -0.100000 0.800000
v -0.800000 0.020000 0.800000
v 0.800000 -0.100000 -0.800000
v 0.800000 0.020000 -0.800000
v -0.800000 -0.100000 -0.800000
v -0.800000 0.020000 -0.800000
v 0.800000 -0.100000 -1.000000
v 0.800000 0.020000 -1.000000
v -0.800000 -0.100000 -1.000000
v -0.800000 0.020000 -1.000000
vn -1.0000 -0.0000 -0.0000
vn -0.0000 -0.0000 -1.0000
vn 1.0000 -0.0000 -0.0000
vn -0.0000 -0.0000 1.0000
vn -0.0000 -1.0000 -0.0000
vn -0.0000 1.0000 -0.0000
vt 0.375000 0.000000
vt 0.625000 0.000000
vt 0.625000 0.250000
vt 0.375000 0.250000
vt 0.625000 0.500000
vt 0.375000 0.500000
vt 0.625000 0.750000
vt 0.375000 0.750000
vt 0.625000 1.000000
vt 0.375000 1.000000
vt 0.125000 0.500000
vt 0.125000 0.750000
vt 0.875000 0.500000
vt 0.875000 0.750000
s 0
usemtl yellow5
f 1/1/1 2/2/1 4/3/1 3/4/1
f 3/4/2 4/3/2 8/5/2 7/6/2
f 7/6/3 8/5/3 6/7/3 5/8/3
f 5/8/4 6/7/4 2/9/4 1/10/4
f 3/11/5 7/6/5 5/8/5 1/12/5
f 8/5/6 4/13/6 2/14/6 6/7/6
f 9/1/1 10/2/1 12/3/1 11/4/1
f 11/4/2 12/3/2 16/5/2 15/6/2
f 15/6/3 16/5/3 14/7/3 13/8/3
f 13/8/4 14/7/4 10/9/4 9/10/4
f 11/11/5 15/6/5 13/8/5 9/12/5
f 16/5/6 12/13/6 10/14/6 14/7/6
f 17/1/4 18/2/4 20/3/4 19/4/4
f 19/4/1 20/3/1 24/5/1 23/6/1
f 23/6/2 24/5/2 22/7/2 21/8/2
f 21/8/3 22/7/3 18/9/3 17/10/3
f 19/11/5 23/6/5 21/8/5 17/12/5
f 24/5/6 20/13/6 18/14/6 22/7/6
f 25/1/4 26/2/4 28/3/4 27/4/4
f 27/4/1 28/3/1 32/5/1 31/6/1
f 31/6/2 32/5/2 30/7/2 29/8/2
f 29/8/3 30/7/3 26/9/3 25/10/3
f 27/11/5 31/6/5 29/8/5 25/12/5
f 32/5/6 28/13/6 26/14/6 30/7/6
o Cube.001
v -0.800000 -0.100000 0.800000
v -0.800000 -0.060000 0.800000
v -0.800000 -0.100000 -0.800000
v -0.800000 -0.060000 -0.800000
v 0.800000 -0.100000 0.800000
v 0.800000 -0.060000 0.800000
v 0.800000 -0.100000 -0.800000
v 0.800000 -0.060000 -0.800000
vn -1.0000 -0.0000 -0.0000
vn -0.0000 -0.0000 -1.0000
vn 1.0000 -0.0000 -0.0000
vn -0.0000 -0.0000 1.0000
vn -0.0000 -1.0000 -0.0000
vn -0.0000 1.0000 -0.0000
vt 0.375000 0.000000
vt 0.625000 0.000000
vt 0.625000 0.250000
vt 0.375000 0.250000
vt 0.625000 0.500000
vt 0.375000 0.500000
vt 0.625000 0.750000
vt 0.375000 0.750000
vt 0.625000 1.000000
vt 0.375000 1.000000
vt 0.125000 0.500000
vt 0.125000 0.750000
vt 0.875000 0.500000
vt 0.875000 0.750000
s 0
usemtl baseWhite
f 33/15/7 34/16/7 36/17/7 35/18/7
f 35/18/8 36/17/8 40/19/8 39/20/8
f 39/20/9 40/19/9 38/21/9 37/22/9
f 37/22/10 38/21/10 34/23/10 33/24/10
f 35/25/11 39/20/11 37/22/11 33/26/11
f 40/19/12 36/27/12 34/28/12 38/21/12
o Text
v 0.232832 0.042837 -0.487176
v -0.221668 0.042837 -0.487176
v -0.221668 0.042837 0.045324
v -0.167348 0.042837 0.035030
v -0.116987 0.042837 0.030845
v -0.070730 0.042837 0.032317
v -0.028723 0.042837 0.038991
v 0.008888 0.042837 0.050415
v 0.041957 0.042837 0.066137
v 0.070339 0.042837 0.085702
v 0.093888 0.042837 0.108658
v 0.112457 0.042837 0.134551
v 0.125902 0.042837 0.162928
v 0.134075 0.042837 0.193337
v 0.136832 0.042837 0.225324
v 0.134876 0.042837 0.250066
v 0.129186 0.042837 0.273887
v 0.120028 0.042837 0.296551
v 0.107666 0.042837 0.317824
v 0.092366 0.042837 0.337473
v 0.074395 0.042837 0.355262
v 0.054017 0.042837 0.370957
v 0.031499 0.042837 0.384324
v 0.007106 0.042837 0.395129
v -0.018897 0.042837 0.403137
v -0.046243 0.042837 0.408113
v -0.074668 0.042837 0.409824
v -0.093417 0.042837 0.409294
v -0.112161 0.042837 0.407706
v -0.130894 0.042837 0.405066
v -0.149612 0.042837 0.401380
v -0.168309 0.042837 0.396652
v -0.186980 0.042837 0.390887
v -0.205620 0.042837 0.384091
v -0.224223 0.042837 0.376269
v -0.242785 0.042837 0.367426
v -0.261300 0.042837 0.357567
v -0.279762 0.042837 0.346698
v -0.298168 0.042837 0.334824
v -0.298168 0.042837 0.486324
v -0.276397 0.042837 0.497017
v -0.255251 0.042837 0.506616
v -0.234605 0.042837 0.515152
v -0.214334 0.042837 0.522658
v -0.194314 0.042837 0.529163
v -0.174418 0.042837 0.534699
v -0.154522 0.042837 0.539298
v -0.134501 0.042837 0.542991
v -0.114230 0.042837 0.545809
v -0.093584 0.042837 0.547783
v -0.072439 0.042837 0.548944
v -0.050668 0.042837 0.549324
v -0.003438 0.042837 0.546500
v 0.041298 0.042837 0.538227
v 0.083231 0.042837 0.524809
v 0.122054 0.042837 0.506546
v 0.157462 0.042837 0.483743
v 0.189145 0.042837 0.456699
v 0.216797 0.042837 0.425718
v 0.240110 0.042837 0.391102
v 0.258778 0.042837 0.353152
v 0.272492 0.042837 0.312172
v 0.280946 0.042837 0.268461
v 0.283832 0.042837 0.222324
v 0.280924 0.042837 0.176047
v 0.272318 0.042837 0.131984
v 0.258192 0.042837 0.090535
v 0.238721 0.042837 0.052102
v 0.214084 0.042837 0.017086
v 0.184457 0.042837 -0.014113
v 0.150018 0.042837 -0.041093
v 0.110943 0.042837 -0.063453
v 0.067410 0.042837 -0.080793
v 0.019596 0.042837 -0.092710
v -0.032322 0.042837 -0.098805
v -0.088168 0.042837 -0.098676
v -0.088168 0.042837 -0.355176
v 0.232832 0.042837 -0.355176
v 0.232832 -0.047163 -0.487176
v -0.221668 -0.047163 -0.487176
v -0.221668 -0.047163 0.045324
v -0.167348 -0.047163 0.035030
v -0.116987 -0.047163 0.030845
v -0.070730 -0.047163 0.032317
v -0.028723 -0.047163 0.038991
v 0.008888 -0.047163 0.050415
v 0.041957 -0.047163 0.066137
v 0.070339 -0.047163 0.085702
v 0.093888 -0.047163 0.108658
v 0.112457 -0.047163 0.134551
v 0.125902 -0.047163 0.162928
v 0.134075 -0.047163 0.193337
v 0.136832 -0.047163 0.225324
v 0.134876 -0.047163 0.250066
v 0.129186 -0.047163 0.273887
v 0.120028 -0.047163 0.296551
v 0.107666 -0.047163 0.317824
v 0.092366 -0.047163 0.337473
v 0.074395 -0.047163 0.355262
v 0.054017 -0.047163 0.370957
v 0.031499 -0.047163 0.384324
v 0.007106 -0.047163 0.395129
v -0.018897 -0.047163 0.403137
v -0.046243 -0.047163 0.408113
v -0.074668 -0.047163 0.409824
v -0.093417 -0.047163 0.409294
v -0.112161 -0.047163 0.407706
v -0.130894 -0.047163 0.405066
v -0.149612 -0.047163 0.401380
v -0.168309 -0.047163 0.396652
v -0.186980 -0.047163 0.390887
v -0.205620 -0.047163 0.384091
v -0.224223 -0.047163 0.376269
v -0.242785 -0.047163 0.367426
v -0.261300 -0.047163 0.357567
v -0.279762 -0.047163 0.346698
v -0.298168 -0.047163 0.334824
v -0.298168 -0.047163 0.486324
v -0.276397 -0.047163 0.497017
v -0.255251 -0.047163 0.506616
v -0.234605 -0.047163 0.515152
v -0.214334 -0.047163 0.522658
v -0.194314 -0.047163 0.529163
v -0.174418 -0.047163 0.534699
v -0.154522 -0.047163 0.539298
v -0.134501 -0.047163 0.542991
v -0.114230 -0.047163 0.545809
v -0.093584 -0.047163 0.547783
v -0.072439 -0.047163 0.548944
v -0.050668 -0.047163 0.549324
v -0.003438 -0.047163 0.546500
v 0.041298 -0.047163 0.538227
v 0.083231 -0.047163 0.524809
v 0.122054 -0.047163 0.506546
v 0.157462 -0.047163 0.483743
v 0.189145 -0.047163 0.456699
v 0.216797 -0.047163 0.425718
v 0.240110 -0.047163 0.391102
v 0.258778 -0.047163 0.353152
v 0.272492 -0.047163 0.312172
v 0.280946 -0.047163 0.268461
v 0.283832 -0.047163 0.222324
v 0.280924 -0.047163 0.176047
v 0.272318 -0.047163 0.131984
v 0.258192 -0.047163 0.090535
v 0.238721 -0.047163 0.052102
v 0.214084 -0.047163 0.017086
v 0.184457 -0.047163 -0.014113
v 0.150018 -0.047163 -0.041093
v 0.110943 -0.047163 -0.063453
v 0.067410 -0.047163 -0.080793
v 0.019596 -0.047163 -0.092710
v -0.032322 -0.047163 -0.098805
v -0.088168 -0.047163 -0.098676
v -0.088168 -0.047163 -0.355176
v 0.232832 -0.047163 -0.355176
vn -0.0000 1.0000 -0.0000
vn -0.0000 -1.0000 -0.0000
vn -1.0000 -0.0000 -0.0000
vn -0.0000 -0.0000 -1.0000
vn -0.0000 -0.0000 1.0000
vn 1.0000 -0.0000 -0.0000
vn -0.0023 -0.0000 -1.0000
vn 0.1166 -0.0000 -0.9932
vn 0.2418 -0.0000 -0.9703
vn 0.3700 -0.0000 -0.9290
vn 0.4967 -0.0000 -0.8679
vn 0.1862 -0.0000 0.9825
vn 0.6167 -0.0000 -0.7872
vn 0.0828 -0.0000 0.9966
vn 0.7251 -0.0000 -0.6886
vn -0.0318 -0.0000 0.9995
vn 0.8179 -0.0000 -0.5754
vn -0.1569 -0.0000 0.9876
vn -0.2906 -0.0000 0.9568
vn -0.4294 -0.0000 0.9031
vn 0.8921 -0.0000 -0.4519
vn -0.5676 -0.0000 0.8233
vn -0.6980 -0.0000 0.7161
vn 0.9465 -0.0000 -0.3226
vn -0.8126 -0.0000 0.5828
vn 0.9815 -0.0000 -0.1917
vn -0.9037 -0.0000 0.4281
vn -0.9657 -0.0000 0.2596
vn 0.9980 -0.0000 -0.0627
vn -0.9963 -0.0000 0.0859
vn 0.9980 -0.0000 0.0624
vn -0.9969 -0.0000 -0.0788
vn -0.9726 -0.0000 -0.2323
vn 0.9818 -0.0000 0.1899
vn -0.9272 -0.0000 -0.3747
vn -0.8646 -0.0000 -0.5024
vn 0.9483 -0.0000 0.3174
vn -0.7890 -0.0000 -0.6144
vn 0.5421 -0.0000 -0.8403
vn -0.7035 -0.0000 -0.7107
vn 0.5073 -0.0000 -0.8618
vn 0.8973 -0.0000 0.4414
vn -0.6102 -0.0000 -0.7922
vn 0.4700 -0.0000 -0.8827
vn 0.4301 -0.0000 -0.9028
vn -0.5105 -0.0000 -0.8599
vn 0.3876 -0.0000 -0.9218
vn 0.3425 -0.0000 -0.9395
vn -0.4050 -0.0000 -0.9143
vn 0.2950 -0.0000 -0.9555
vn 0.8294 -0.0000 0.5586
vn -0.2943 -0.0000 -0.9557
vn 0.2452 -0.0000 -0.9695
vn 0.1932 -0.0000 -0.9812
vn -0.1790 -0.0000 -0.9838
vn 0.1395 -0.0000 -0.9902
vn 0.0844 -0.0000 -0.9964
vn -0.0601 -0.0000 -0.9982
vn 0.0283 -0.0000 -0.9996
vn 0.7461 -0.0000 0.6659
vn 0.6492 -0.0000 0.7606
vn 0.5415 -0.0000 0.8407
vn -0.4408 -0.0000 0.8976
vn -0.4133 -0.0000 0.9106
vn 0.4256 -0.0000 0.9049
vn -0.3821 -0.0000 0.9241
vn -0.3472 -0.0000 0.9378
vn -0.3090 -0.0000 0.9511
vn 0.3048 -0.0000 0.9524
vn -0.2681 -0.0000 0.9634
vn -0.2252 -0.0000 0.9743
vn 0.1818 -0.0000 0.9833
vn -0.1814 -0.0000 0.9834
vn -0.1377 -0.0000 0.9905
vn -0.0952 -0.0000 0.9955
vn 0.0597 -0.0000 0.9982
vn -0.0548 -0.0000 0.9985
vn -0.0175 -0.0000 0.9998
vt 0.025974 0.000000
vt 0.987013 0.000000
vt 0.012987 0.000000
vt 0.000000 0.000000
vt 1.000000 0.000000
vt 0.974026 0.000000
vt 0.948052 0.000000
vt 0.961039 0.000000
vt 0.935065 0.000000
vt 0.922078 0.000000
vt 0.909091 0.000000
vt 0.038961 0.000000
vt 0.896104 0.000000
vt 0.051948 0.000000
vt 0.883117 0.000000
vt 0.064935 0.000000
vt 0.870130 0.000000
vt 0.077922 0.000000
vt 0.090909 0.000000
vt 0.103896 0.000000
vt 0.857143 0.000000
vt 0.116883 0.000000
vt 0.129870 0.000000
vt 0.844156 0.000000
vt 0.142857 0.000000
vt 0.831169 0.000000
vt 0.155844 0.000000
vt 0.168831 0.000000
vt 0.818182 0.000000
vt 0.181818 0.000000
vt 0.805195 0.000000
vt 0.194805 0.000000
vt 0.207792 0.000000
vt 0.792208 0.000000
vt 0.220779 0.000000
vt 0.233766 0.000000
vt 0.779221 0.000000
vt 0.246753 0.000000
vt 0.506494 0.000000
vt 0.480519 0.000000
vt 0.493506 0.000000
vt 0.259740 0.000000
vt 0.467532 0.000000
vt 0.766234 0.000000
vt 0.272727 0.000000
vt 0.454545 0.000000
vt 0.441558 0.000000
vt 0.285714 0.000000
vt 0.428571 0.000000
vt 0.415584 0.000000
vt 0.298701 0.000000
vt 0.402597 0.000000
vt 0.753247 0.000000
vt 0.311688 0.000000
vt 0.389610 0.000000
vt 0.376623 0.000000
vt 0.324675 0.000000
vt 0.363636 0.000000
vt 0.350649 0.000000
vt 0.337662 0.000000
vt 0.740260 0.000000
vt 0.727273 0.000000
vt 0.714286 0.000000
vt 0.519481 0.000000
vt 0.532468 0.000000
vt 0.701299 0.000000
vt 0.545455 0.000000
vt 0.558442 0.000000
vt 0.571429 0.000000
vt 0.688312 0.000000
vt 0.584416 0.000000
vt 0.597403 0.000000
vt 0.675325 0.000000
vt 0.610390 0.000000
vt 0.623377 0.000000
vt 0.636364 0.000000
vt 0.662338 0.000000
vt 0.649351 0.000000
s 0
usemtl yellow5
f 43/29/13 117/30/13 42/31/13
f 117/30/13 41/32/13 42/31/13
f 117/30/13 118/33/13 41/32/13
f 43/29/13 116/34/13 117/30/13
f 116/34/13 114/35/13 115/36/13
f 43/29/13 114/35/13 116/34/13
f 43/29/13 113/37/13 114/35/13
f 43/29/13 112/38/13 113/37/13
f 43/29/13 111/39/13 112/38/13
f 43/29/13 44/40/13 111/39/13
f 44/40/13 110/41/13 111/39/13
f 44/40/13 45/42/13 110/41/13
f 45/42/13 109/43/13 110/41/13
f 45/42/13 46/44/13 109/43/13
f 46/44/13 108/45/13 109/43/13
f 47/46/13 108/45/13 46/44/13
f 48/47/13 108/45/13 47/46/13
f 49/48/13 108/45/13 48/47/13
f 49/48/13 107/49/13 108/45/13
f 50/50/13 107/49/13 49/48/13
f 51/51/13 107/49/13 50/50/13
f 51/51/13 106/52/13 107/49/13
f 52/53/13 106/52/13 51/51/13
f 52/53/13 105/54/13 106/52/13
f 53/55/13 105/54/13 52/53/13
f 54/56/13 105/54/13 53/55/13
f 54/56/13 104/57/13 105/54/13
f 55/58/13 104/57/13 54/56/13
f 55/58/13 103/59/13 104/57/13
f 56/60/13 103/59/13 55/58/13
f 57/61/13 103/59/13 56/60/13
f 57/61/13 102/62/13 103/59/13
f 58/63/13 102/62/13 57/61/13
f 59/64/13 102/62/13 58/63/13
f 59/64/13 101/65/13 102/62/13
f 60/66/13 101/65/13 59/64/13
f 80/67/13 78/68/13 79/69/13
f 61/70/13 101/65/13 60/66/13
f 80/67/13 77/71/13 78/68/13
f 61/70/13 100/72/13 101/65/13
f 62/73/13 100/72/13 61/70/13
f 80/67/13 76/74/13 77/71/13
f 80/67/13 75/75/13 76/74/13
f 63/76/13 100/72/13 62/73/13
f 80/67/13 74/77/13 75/75/13
f 80/67/13 73/78/13 74/77/13
f 64/79/13 100/72/13 63/76/13
f 80/67/13 72/80/13 73/78/13
f 64/79/13 99/81/13 100/72/13
f 65/82/13 99/81/13 64/79/13
f 80/67/13 71/83/13 72/80/13
f 80/67/13 70/84/13 71/83/13
f 66/85/13 99/81/13 65/82/13
f 80/67/13 69/86/13 70/84/13
f 80/67/13 68/87/13 69/86/13
f 67/88/13 99/81/13 66/85/13
f 80/67/13 67/88/13 68/87/13
f 80/67/13 99/81/13 67/88/13
f 80/67/13 98/89/13 99/81/13
f 80/67/13 97/90/13 98/89/13
f 80/67/13 96/91/13 97/90/13
f 81/92/13 96/91/13 80/67/13
f 82/93/13 96/91/13 81/92/13
f 82/93/13 95/94/13 96/91/13
f 83/95/13 95/94/13 82/93/13
f 84/96/13 95/94/13 83/95/13
f 85/97/13 95/94/13 84/96/13
f 85/97/13 94/98/13 95/94/13
f 86/99/13 94/98/13 85/97/13
f 87/100/13 94/98/13 86/99/13
f 87/100/13 93/101/13 94/98/13
f 88/102/13 93/101/13 87/100/13
f 89/103/13 93/101/13 88/102/13
f 90/104/13 93/101/13 89/103/13
f 90/104/13 92/105/13 93/101/13
f 91/106/13 92/105/13 90/104/13
f 121/29/14 120/31/14 195/30/14
f 195/30/14 120/31/14 119/32/14
f 195/30/14 119/32/14 196/33/14
f 121/29/14 195/30/14 194/34/14
f 194/34/14 193/36/14 192/35/14
f 121/29/14 194/34/14 192/35/14
f 121/29/14 192/35/14 191/37/14
f 121/29/14 191/37/14 190/38/14
f 121/29/14 190/38/14 189/39/14
f 121/29/14 189/39/14 122/40/14
f 122/40/14 189/39/14 188/41/14
f 122/40/14 188/41/14 123/42/14
f 123/42/14 188/41/14 187/43/14
f 123/42/14 187/43/14 124/44/14
f 124/44/14 187/43/14 186/45/14
f 125/46/14 124/44/14 186/45/14
f 126/47/14 125/46/14 186/45/14
f 127/48/14 126/47/14 186/45/14
f 127/48/14 186/45/14 185/49/14
f 128/50/14 127/48/14 185/49/14
f 129/51/14 128/50/14 185/49/14
f 129/51/14 185/49/14 184/52/14
f 130/53/14 129/51/14 184/52/14
f 130/53/14 184/52/14 183/54/14
f 131/55/14 130/53/14 183/54/14
f 132/56/14 131/55/14 183/54/14
f 132/56/14 183/54/14 182/57/14
f 133/58/14 132/56/14 182/57/14
f 133/58/14 182/57/14 181/59/14
f 134/60/14 133/58/14 181/59/14
f 135/61/14 134/60/14 181/59/14
f 135/61/14 181/59/14 180/62/14
f 136/63/14 135/61/14 180/62/14
f 137/64/14 136/63/14 180/62/14
f 137/64/14 180/62/14 179/65/14
f 138/66/14 137/64/14 179/65/14
f 158/67/14 157/69/14 156/68/14
f 139/70/14 138/66/14 179/65/14
f 158/67/14 156/68/14 155/71/14
f 139/70/14 179/65/14 178/72/14
f 140/73/14 139/70/14 178/72/14
f 158/67/14 155/71/14 154/74/14
f 158/67/14 154/74/14 153/75/14
f 141/76/14 140/73/14 178/72/14
f 158/67/14 153/75/14 152/77/14
f 158/67/14 152/77/14 151/78/14
f 142/79/14 141/76/14 178/72/14
f 158/67/14 151/78/14 150/80/14
f 142/79/14 178/72/14 177/81/14
f 143/82/14 142/79/14 177/81/14
f 158/67/14 150/80/14 149/83/14
f 158/67/14 149/83/14 148/84/14
f 144/85/14 143/82/14 177/81/14
f 158/67/14 148/84/14 147/86/14
f 158/67/14 147/86/14 146/87/14
f 145/88/14 144/85/14 177/81/14
f 158/67/14 146/87/14 145/88/14
f 158/67/14 145/88/14 177/81/14
f 158/67/14 177/81/14 176/89/14
f 158/67/14 176/89/14 175/90/14
f 158/67/14 175/90/14 174/91/14
f 159/92/14 158/67/14 174/91/14
f 160/93/14 159/92/14 174/91/14
f 160/93/14 174/91/14 173/94/14
f 161/95/14 160/93/14 173/94/14
f 162/96/14 161/95/14 173/94/14
f 163/97/14 162/96/14 173/94/14
f 163/97/14 173/94/14 172/98/14
f 164/99/14 163/97/14 172/98/14
f 165/100/14 164/99/14 172/98/14
f 165/100/14 172/98/14 171/101/14
f 166/102/14 165/100/14 171/101/14
f 167/103/14 166/102/14 171/101/14
f 168/104/14 167/103/14 171/101/14
f 168/104/14 171/101/14 170/105/14
f 169/106/14 168/104/14 170/105/14
f 43/29/15 42/31/15 120/31/15 121/29/15
f 42/31/16 41/32/16 119/32/16 120/31/16
f 118/33/17 117/30/17 195/30/17 196/33/17
f 41/32/18 118/33/18 196/33/18 119/32/18
f 117/30/18 116/34/18 194/34/18 195/30/18
f 116/34/19 115/36/19 193/36/19 194/34/19
f 115/36/20 114/35/20 192/35/20 193/36/20
f 114/35/21 113/37/21 191/37/21 192/35/21
f 113/37/22 112/38/22 190/38/22 191/37/22
f 112/38/23 111/39/23 189/39/23 190/38/23
f 44/40/24 43/29/24 121/29/24 122/40/24
f 111/39/25 110/41/25 188/41/25 189/39/25
f 45/42/26 44/40/26 122/40/26 123/42/26
f 110/41/27 109/43/27 187/43/27 188/41/27
f 46/44/28 45/42/28 123/42/28 124/44/28
f 109/43/29 108/45/29 186/45/29 187/43/29
f 47/46/30 46/44/30 124/44/30 125/46/30
f 48/47/31 47/46/31 125/46/31 126/47/31
f 49/48/32 48/47/32 126/47/32 127/48/32
f 108/45/33 107/49/33 185/49/33 186/45/33
f 50/50/34 49/48/34 127/48/34 128/50/34
f 51/51/35 50/50/35 128/50/35 129/51/35
f 107/49/36 106/52/36 184/52/36 185/49/36
f 52/53/37 51/51/37 129/51/37 130/53/37
f 106/52/38 105/54/38 183/54/38 184/52/38
f 53/55/39 52/53/39 130/53/39 131/55/39
f 54/56/40 53/55/40 131/55/40 132/56/40
f 105/54/41 104/57/41 182/57/41 183/54/41
f 55/58/42 54/56/42 132/56/42 133/58/42
f 104/57/43 103/59/43 181/59/43 182/57/43
f 56/60/44 55/58/44 133/58/44 134/60/44
f 57/61/45 56/60/45 134/60/45 135/61/45
f 103/59/46 102/62/46 180/62/46 181/59/46
f 58/63/47 57/61/47 135/61/47 136/63/47
f 59/64/48 58/63/48 136/63/48 137/64/48
f 102/62/49 101/65/49 179/65/49 180/62/49
f 60/66/50 59/64/50 137/64/50 138/66/50
f 80/67/15 79/69/15 157/69/15 158/67/15
f 79/69/51 78/68/51 156/68/51 157/69/51
f 61/70/52 60/66/52 138/66/52 139/70/52
f 78/68/53 77/71/53 155/71/53 156/68/53
f 101/65/54 100/72/54 178/72/54 179/65/54
f 62/73/55 61/70/55 139/70/55 140/73/55
f 77/71/56 76/74/56 154/74/56 155/71/56
f 76/74/57 75/75/57 153/75/57 154/74/57
f 63/76/58 62/73/58 140/73/58 141/76/58
f 75/75/59 74/77/59 152/77/59 153/75/59
f 74/77/60 73/78/60 151/78/60 152/77/60
f 64/79/61 63/76/61 141/76/61 142/79/61
f 73/78/62 72/80/62 150/80/62 151/78/62
f 100/72/63 99/81/63 177/81/63 178/72/63
f 65/82/64 64/79/64 142/79/64 143/82/64
f 72/80/65 71/83/65 149/83/65 150/80/65
f 71/83/66 70/84/66 148/84/66 149/83/66
f 66/85/67 65/82/67 143/82/67 144/85/67
f 70/84/68 69/86/68 147/86/68 148/84/68
f 69/86/69 68/87/69 146/87/69 147/86/69
f 67/88/70 66/85/70 144/85/70 145/88/70
f 68/87/71 67/88/71 145/88/71 146/87/71
f 99/81/72 98/89/72 176/89/72 177/81/72
f 98/89/73 97/90/73 175/90/73 176/89/73
f 97/90/74 96/91/74 174/91/74 175/90/74
f 81/92/75 80/67/75 158/67/75 159/92/75
f 82/93/76 81/92/76 159/92/76 160/93/76
f 96/91/77 95/94/77 173/94/77 174/91/77
f 83/95/78 82/93/78 160/93/78 161/95/78
f 84/96/79 83/95/79 161/95/79 162/96/79
f 85/97/80 84/96/80 162/96/80 163/97/80
f 95/94/81 94/98/81 172/98/81 173/94/81
f 86/99/82 85/97/82 163/97/82 164/99/82
f 87/100/83 86/99/83 164/99/83 165/100/83
f 94/98/84 93/101/84 171/101/84 172/98/84
f 88/102/85 87/100/85 165/100/85 166/102/85
f 89/103/86 88/102/86 166/102/86 167/103/86
f 90/104/87 89/103/87 167/103/87 168/104/87
f 93/101/88 92/105/88 170/105/88 171/101/88
f 91/106/89 90/104/89 168/104/89 169/106/89
f 92/105/90 91/106/90 169/106/90 170/105/90
