# Blender 4.3.0
# www.blender.org
mtllib rbomb.mtl
o Cube.002
v 0.800000 -0.100000 1.000000
v 0.800000 0.020000 1.000000
v 0.800000 -0.100000 -1.000000
v 0.800000 0.020000 -1.000000
v 1.000000 -0.100000 1.000000
v 1.000000 0.020000 1.000000
v 1.000000 -0.100000 -1.000000
v 1.000000 0.020000 -1.000000
v -1.000000 -0.100000 1.000000
v -1.000000 0.020000 1.000000
v -1.000000 -0.100000 -1.000000
v -1.000000 0.020000 -1.000000
v -0.800000 -0.100000 1.000000
v -0.800000 0.020000 1.000000
v -0.800000 -0.100000 -1.000000
v -0.800000 0.020000 -1.000000
v 0.800000 -0.100000 1.000000
v 0.800000 0.020000 1.000000
v -0.800000 -0.100000 1.000000
v -0.800000 0.020000 1.000000
v 0.800000 -0.100000 0.800000
v 0.800000 0.020000 0.800000
v -0.800000 -0.100000 0.800000
v -0.800000 0.020000 0.800000
v 0.800000 -0.100000 -0.800000
v 0.800000 0.020000 -0.800000
v -0.800000 -0.100000 -0.800000
v -0.800000 0.020000 -0.800000
v 0.800000 -0.100000 -1.000000
v 0.800000 0.020000 -1.000000
v -0.800000 -0.100000 -1.000000
v -0.800000 0.020000 -1.000000
vn -1.0000 -0.0000 -0.0000
vn -0.0000 -0.0000 -1.0000
vn 1.0000 -0.0000 -0.0000
vn -0.0000 -0.0000 1.0000
vn -0.0000 -1.0000 -0.0000
vn -0.0000 1.0000 -0.0000
vt 0.375000 0.000000
vt 0.625000 0.000000
vt 0.625000 0.250000
vt 0.375000 0.250000
vt 0.625000 0.500000
vt 0.375000 0.500000
vt 0.625000 0.750000
vt 0.375000 0.750000
vt 0.625000 1.000000
vt 0.375000 1.000000
vt 0.125000 0.500000
vt 0.125000 0.750000
vt 0.875000 0.500000
vt 0.875000 0.750000
s 0
usemtl Black
f 1/1/1 2/2/1 4/3/1 3/4/1
f 3/4/2 4/3/2 8/5/2 7/6/2
f 7/6/3 8/5/3 6/7/3 5/8/3
f 5/8/4 6/7/4 2/9/4 1/10/4
f 3/11/5 7/6/5 5/8/5 1/12/5
f 8/5/6 4/13/6 2/14/6 6/7/6
f 9/1/1 10/2/1 12/3/1 11/4/1
f 11/4/2 12/3/2 16/5/2 15/6/2
f 15/6/3 16/5/3 14/7/3 13/8/3
f 13/8/4 14/7/4 10/9/4 9/10/4
f 11/11/5 15/6/5 13/8/5 9/12/5
f 16/5/6 12/13/6 10/14/6 14/7/6
f 17/1/4 18/2/4 20/3/4 19/4/4
f 19/4/1 20/3/1 24/5/1 23/6/1
f 23/6/2 24/5/2 22/7/2 21/8/2
f 21/8/3 22/7/3 18/9/3 17/10/3
f 19/11/5 23/6/5 21/8/5 17/12/5
f 24/5/6 20/13/6 18/14/6 22/7/6
f 25/1/4 26/2/4 28/3/4 27/4/4
f 27/4/1 28/3/1 32/5/1 31/6/1
f 31/6/2 32/5/2 30/7/2 29/8/2
f 29/8/3 30/7/3 26/9/3 25/10/3
f 27/11/5 31/6/5 29/8/5 25/12/5
f 32/5/6 28/13/6 26/14/6 30/7/6
o Cube.001
v -0.800000 -0.100000 0.800000
v -0.800000 -0.060000 0.800000
v -0.800000 -0.100000 -0.800000
v -0.800000 -0.060000 -0.800000
v 0.800000 -0.100000 0.800000
v 0.800000 -0.060000 0.800000
v 0.800000 -0.100000 -0.800000
v 0.800000 -0.060000 -0.800000
vn -1.0000 -0.0000 -0.0000
vn -0.0000 -0.0000 -1.0000
vn 1.0000 -0.0000 -0.0000
vn -0.0000 -0.0000 1.0000
vn -0.0000 -1.0000 -0.0000
vn -0.0000 1.0000 -0.0000
vt 0.375000 0.000000
vt 0.625000 0.000000
vt 0.625000 0.250000
vt 0.375000 0.250000
vt 0.625000 0.500000
vt 0.375000 0.500000
vt 0.625000 0.750000
vt 0.375000 0.750000
vt 0.625000 1.000000
vt 0.375000 1.000000
vt 0.125000 0.500000
vt 0.125000 0.750000
vt 0.875000 0.500000
vt 0.875000 0.750000
s 0
usemtl Red3
f 33/15/7 34/16/7 36/17/7 35/18/7
f 35/18/8 36/17/8 40/19/8 39/20/8
f 39/20/9 40/19/9 38/21/9 37/22/9
f 37/22/10 38/21/10 34/23/10 33/24/10
f 35/25/11 39/20/11 37/22/11 33/26/11
f 40/19/12 36/27/12 34/28/12 38/21/12
o Text
v 0.489446 0.042837 -0.487176
v 0.312446 0.042837 -0.487176
v -0.007054 0.042837 -0.097176
v -0.328054 0.042837 -0.487176
v -0.506554 0.042837 -0.487176
v -0.097054 0.042837 0.006324
v -0.538054 0.042837 0.535824
v -0.359554 0.042837 0.535824
v -0.007054 0.042837 0.112824
v 0.340946 0.042837 0.535824
v 0.517946 0.042837 0.535824
v 0.081446 0.042837 0.006324
v 0.489446 -0.047163 -0.487176
v 0.312446 -0.047163 -0.487176
v -0.007054 -0.047163 -0.097176
v -0.328054 -0.047163 -0.487176
v -0.506554 -0.047163 -0.487176
v -0.097054 -0.047163 0.006324
v -0.538054 -0.047163 0.535824
v -0.359554 -0.047163 0.535824
v -0.007054 -0.047163 0.112824
v 0.340946 -0.047163 0.535824
v 0.517946 -0.047163 0.535824
v 0.081446 -0.047163 0.006324
vn -0.0000 1.0000 -0.0000
vn -0.0000 -1.0000 -0.0000
vn -0.7696 -0.0000 0.6386
vn -0.0000 -0.0000 -1.0000
vn 0.7721 -0.0000 -0.6355
vn -0.7736 -0.0000 -0.6337
vn 0.7707 -0.0000 0.6372
vn -0.7684 -0.0000 -0.6400
vn 0.7716 -0.0000 -0.6361
vn -0.0000 -0.0000 1.0000
vn 0.7682 -0.0000 0.6402
vn -0.7722 -0.0000 0.6353
vt 0.454545 0.000000
vt 0.272727 0.000000
vt 0.363636 0.000000
vt 0.181818 0.000000
vt 0.000000 0.000000
vt 0.090909 0.000000
vt 1.000000 0.000000
vt 0.545455 0.000000
vt 0.727273 0.000000
vt 0.909091 0.000000
vt 0.636364 0.000000
vt 0.818182 0.000000
s 0
usemtl Black
f 46/29/13 44/30/13 45/31/13
f 46/29/13 43/32/13 44/30/13
f 43/32/13 41/33/13 42/34/13
f 43/32/13 52/35/13 41/33/13
f 46/29/13 52/35/13 43/32/13
f 47/36/13 52/35/13 46/29/13
f 47/36/13 49/37/13 52/35/13
f 49/37/13 51/38/13 52/35/13
f 47/36/13 48/39/13 49/37/13
f 50/40/13 51/38/13 49/37/13
f 58/29/14 57/31/14 56/30/14
f 58/29/14 56/30/14 55/32/14
f 55/32/14 54/34/14 53/33/14
f 55/32/14 53/33/14 64/35/14
f 58/29/14 55/32/14 64/35/14
f 59/36/14 58/29/14 64/35/14
f 59/36/14 64/35/14 61/37/14
f 61/37/14 64/35/14 63/38/14
f 59/36/14 61/37/14 60/39/14
f 62/40/14 61/37/14 63/38/14
f 46/29/15 45/31/15 57/31/15 58/29/15
f 45/31/16 44/30/16 56/30/16 57/31/16
f 44/30/17 43/32/17 55/32/17 56/30/17
f 43/32/18 42/34/18 54/34/18 55/32/18
f 42/34/16 41/33/16 53/33/16 54/34/16
f 41/33/19 52/35/19 64/35/19 53/33/19
f 47/36/20 46/29/20 58/29/20 59/36/20
f 52/35/21 51/38/21 63/38/21 64/35/21
f 48/39/22 47/36/22 59/36/22 60/39/22
f 49/37/23 48/39/23 60/39/23 61/37/23
f 50/40/24 49/37/24 61/37/24 62/40/24
f 51/38/22 50/40/22 62/40/22 63/38/22
